<?xml version="1.0" encoding="UTF-8"?>
<svg id="uuid-1470365e-ca19-41b0-8a0e-fdb1d7e8cfe6" data-name="Layer 1" xmlns="http://www.w3.org/2000/svg" viewBox="0 0 268.22 324.23">
  <defs>
    <style>
      .uuid-f2c55fbd-5f91-4c79-8270-8fad88546984 {
        fill: #e49f3b;
        fill-rule: evenodd;
      }
    </style>
  </defs>
  <path class="uuid-f2c55fbd-5f91-4c79-8270-8fad88546984" d="M70.36,233.09c-.89-1.76-2.1-3.26-3.65-4.48-1.56-1.23-3.32-2.17-5.32-2.82-1.99-.65-4.07-.98-6.24-.98-1.08,0-2.1.07-3.1.2-2.68.32-5.98.48-9.9.48l.04.81c1.22-.04,2.01.21,2.39.77.31.51.51,1.83.62,3.94.1,2.11.15,5.32.15,9.62,0,6.48-.18,10.12-.54,10.92-.33.69-1.27,1.04-2.84,1.04v.81l2.16.04c.29,0,.83-.01,1.61-.03.78-.02,1.6-.04,2.46-.05.85-.02,1.51-.03,1.95-.03.45-.01.95-.01,1.53-.01.16,0,.73.01,1.69.04.97.02,1.55.04,1.73.04,3.26,0,6.14-.63,8.68-1.9,2.54-1.26,4.48-2.99,5.86-5.19,1.37-2.19,2.05-4.62,2.05-7.28,0-2.2-.44-4.17-1.32-5.94ZM66.57,245.43c-.86,2.03-2.26,3.7-4.21,5.01-1.93,1.31-4.41,1.96-7.44,1.96-1.21,0-2.19-.09-2.99-.27-.78-.19-1.92-.51-3.39-.98,0-.14-.01-.72-.03-1.72s-.04-2-.06-2.98c-.02-.97-.03-1.53-.03-1.63,0-2.95.03-6.45.11-10.51.07-4.07.18-6.51.33-7.32,1.7-.77,3.6-1.14,5.7-1.14s4.25.51,6.3,1.54c2.05,1.01,3.73,2.53,5.04,4.53,1.32,2,1.97,4.39,1.97,7.16,0,2.21-.43,4.32-1.29,6.36ZM101.54,254.02c-1.02-.07-2.09-.5-3.18-1.23-1.09-.75-2.16-1.71-3.2-2.89-1.05-1.18-2.03-2.41-2.94-3.69-.91-1.28-2.04-2.96-3.42-5.04l-.99-1.49c1.41-.52,2.55-1.16,3.45-1.91.9-.76,1.56-1.6,2-2.52.44-.92.66-1.87.66-2.84s-.21-1.88-.64-2.79c-.43-.9-1.05-1.7-1.88-2.4-.82-.7-1.85-1.26-3.07-1.69-1.23-.43-2.62-.63-4.15-.63-.58,0-1.97.09-4.17.27-2.2.19-3.48.28-3.83.28-1.2,0-2.18-.01-2.96-.04l-.09.73c.84.1,1.46.23,1.86.41.39.18.68.52.89,1.05.18.52.3,1.33.35,2.44.05,1.12.06,2.85.03,5.22v9.7c-.01,2.31-.09,3.98-.21,5.04-.13,1.04-.35,1.74-.64,2.1-.29.35-.76.62-1.42.8-.38.11-.63.18-.74.26-.11.07-.16.18-.16.33,0,.27.14.39.43.39.15-.03.28-.04.37-.04,1.51-.2,2.98-.31,4.39-.31.28,0,1.06.06,2.31.17.99.15,1.61.22,1.85.22.2,0,.31-.16.31-.48,0-.16-.17-.28-.49-.35-.99-.27-1.63-.47-1.91-.62-.29-.14-.49-.39-.61-.74-.23-.58-.38-1.55-.45-2.92s-.1-2.62-.1-3.73l.04-5.26c1.27.19,2.87.29,4.8.29l2.52,3.59c1.26,1.79,2.35,3.27,3.27,4.42.93,1.15,1.97,2.25,3.16,3.31,1.18,1.05,2.43,1.89,3.76,2.51,1.31.62,2.68.94,4.1.94.49,0,.81-.04.95-.11.12-.06.19-.16.19-.29,0-.25-.14-.39-.43-.45ZM85.14,238.76c-.79.11-1.53.16-2.23.16-1.39,0-2.57-.12-3.55-.35,0-7.07.17-10.95.51-11.68.13-.36.6-.63,1.41-.8.81-.16,1.54-.25,2.18-.25,1.55,0,2.87.39,3.95,1.17,1.09.78,1.89,1.72,2.41,2.81.51,1.09.78,2.13.78,3.13,0,1.4-.31,2.52-.91,3.35-.6.83-1.31,1.42-2.13,1.77-.83.35-1.63.59-2.41.68ZM128.41,251.73c-.46-.63-.98-1.69-1.58-3.15-.62-1.47-1.51-3.75-2.69-6.83l-4.61-12.35c-.54-1.49-1.04-3.05-1.49-4.68l-.72.04c-.1.1-.14.22-.14.43-.18.67-.48,1.56-.9,2.67s-.84,2.22-1.3,3.32c-.47,1.1-.92,2.17-1.36,3.17l-3.5,8.4c-.28.77-.7,1.81-1.29,3.17-.59,1.36-1.17,2.6-1.75,3.76-.58,1.14-1.05,1.87-1.4,2.18-.47.47-1.14.81-2.02,1.04v.63c1.44-.12,2.76-.17,3.99-.17s2.66.1,4.37.3v-.72c-1.42-.21-2.35-.48-2.82-.82-.46-.34-.68-.77-.68-1.29,0-.42.35-1.48,1.07-3.17l1.62-4.07c1.32-.23,2.85-.32,4.58-.26h1.74c1.92,0,3.3.05,4.15.17l1.61,4.41c.14.31.33.86.6,1.68.27.8.39,1.41.39,1.84,0,.45-.2.77-.6.97-.41.18-.95.33-1.62.46v.73c.22-.02.56-.05.99-.09.44-.03,1.04-.07,1.78-.12.75-.05,1.57-.06,2.46-.06,1.11,0,2.26.05,3.46.17v-.77c-1.18-.12-1.96-.45-2.35-.98ZM117.82,242.11l-2.03.05c-1.44,0-2.72-.09-3.83-.27.12-.23.34-.8.67-1.71l2.49-6.38c.22-.52.43-1.05.62-1.55.2-.5.44-1.07.72-1.69.22.43.58,1.23,1.07,2.38.49,1.15.82,1.95,1,2.39l1.58,4.04c.14.28.47,1.15.97,2.66-.95.05-2.05.07-3.26.07ZM157.76,242.16c.02-.33.06-.58.14-.77.13-.31.26-.51.41-.61.16-.1.52-.23,1.09-.43v-.81c-1.26.12-2.75.2-4.48.23-1.73.03-3.61.06-5.63.07l-.09.95c.35-.06.8-.1,1.38-.1,1.35,0,2.28.12,2.81.35.52.23.85.7,1,1.4.14.7.2,1.95.2,3.74s-.02,2.96-.06,3.39c-.04.44-.15.77-.31.97-.35.44-1.11.89-2.26,1.36-1.17.47-2.58.7-4.25.7-1.97,0-3.79-.42-5.43-1.25-1.64-.84-3.03-1.95-4.18-3.37-1.15-1.4-2.01-2.9-2.57-4.49-.57-1.58-.83-3.13-.83-4.63,0-2.12.49-4.18,1.48-6.18.99-2,2.42-3.6,4.3-4.83,1.87-1.23,4.01-1.84,6.45-1.84s4.58.56,6.06,1.65c1.48,1.11,2.5,2.28,3.04,3.54.1.25.17.4.2.45.04.04.12.06.26.06.17,0,.27-.12.27-.33,0-.51-.11-1.46-.31-2.85-.19-1.4-.29-2.31-.29-2.72,0-.56-.11-.83-.31-.83-.12,0-.56.33-1.33.98-.19,0-.6-.13-1.23-.42-.16-.05-.52-.15-1.08-.27-.56-.13-1.2-.25-1.94-.35-.74-.1-1.51-.15-2.32-.15-2.11,0-4.18.32-6.19.95-2.01.64-3.81,1.59-5.39,2.86-1.59,1.26-2.84,2.82-3.76,4.66-.91,1.86-1.37,3.9-1.37,6.14,0,1.71.3,3.41.9,5.07.6,1.69,1.55,3.23,2.85,4.65,1.3,1.43,2.96,2.56,4.96,3.39,2,.83,4.36,1.25,7.06,1.25.89,0,1.67-.02,2.33-.05.66-.04,1.54-.13,2.63-.27,1.1-.14,2.25-.32,3.45-.53,1.79-.36,2.82-.56,3.04-.57l.23-.51c-.3-.25-.5-.48-.63-.69-.13-.2-.22-.6-.28-1.15s-.09-1.47-.09-2.79c0-1.76.01-2.97.02-3.61.01-.65.03-1.13.05-1.45ZM191.04,233.28c-.81-1.83-1.91-3.38-3.29-4.64-1.38-1.27-2.94-2.25-4.68-2.96-1.74-.69-3.5-1.05-5.28-1.05-2.62,0-5.09.65-7.44,1.97-2.34,1.31-4.22,3.1-5.63,5.35-1.41,2.25-2.11,4.71-2.11,7.37,0,1.65.31,3.34.93,5.04.63,1.71,1.57,3.31,2.84,4.79,1.25,1.49,2.79,2.68,4.59,3.55,1.8.89,3.81,1.31,6.05,1.31,2.92,0,5.55-.67,7.87-2.01,2.32-1.36,4.12-3.16,5.42-5.43,1.3-2.27,1.95-4.72,1.95-7.33,0-2.16-.41-4.14-1.23-5.97ZM187.47,247.38c-.97,1.73-2.23,3-3.76,3.83-1.53.82-3.13,1.23-4.79,1.23-2.25,0-4.39-.67-6.42-2.05-2.01-1.37-3.62-3.19-4.81-5.48-1.21-2.27-1.8-4.7-1.8-7.25,0-2.33.49-4.37,1.47-6.13.98-1.75,2.27-3.09,3.88-4,1.61-.91,3.34-1.37,5.18-1.37,1.69,0,3.29.37,4.8,1.12,1.53.76,2.87,1.83,4.02,3.18,1.16,1.38,2.07,2.96,2.72,4.77.65,1.83.98,3.73.98,5.75,0,2.53-.49,4.65-1.47,6.38ZM225.05,225.09l-2.79.04h-.96c-.39,0-.78-.01-1.15-.04-.61-.06-1.14-.1-1.59-.11-.46-.02-.92-.03-1.37-.03-.5,0-.86.02-1.08.05l-.23.61c1.16.19,2.01.38,2.5.57.5.18.9.54,1.21,1.08.31.54.51,1.39.63,2.53.11,1.13.16,2.84.16,5.09v4.23c0,3.71-.05,6.48-.17,8.32l-12.95-12.29c-.19-.19-1.01-1-2.49-2.42s-2.8-2.76-3.98-4c-1.18-1.25-2.21-2.42-3.1-3.52l-1.89.04c-.49.01-.93,0-1.28-.02-.37-.02-1.22-.07-2.53-.16v.9c1.3.15,2.23.57,2.76,1.25.54.69.86,1.59.97,2.7.12,1.11.15,2.82.12,5.11l-.12,10.46c-.02,1.55-.07,2.82-.15,3.81-.09.98-.2,1.71-.38,2.16-.17.45-.41.76-.69.93-.28.15-.75.28-1.39.34-.25.03-.42.06-.48.11-.07.05-.12.18-.12.41,0,.18.05.32.15.39.1.09.25.13.45.13.63-.05,1.13-.09,1.54-.11.4-.03.7-.05.94-.06,1.38-.06,2.18-.1,2.41-.1.26,0,.97.03,2.17.1,1.17.05,1.88.07,2.11.07.06-.22.09-.5.09-.8-1.8-.35-3.02-.7-3.66-1.07-.65-.36-1.06-1.09-1.25-2.2-.19-1.1-.26-3.03-.18-5.8l.29-13.45c1.64,1.52,3,2.79,4.07,3.8,1.08,1,1.75,1.61,2.03,1.81l8.23,7.69c5.08,4.72,8.11,8.17,9.13,10.34l.9.04c-.05-.77-.11-1.61-.14-2.52-.02-.91-.04-1.92-.07-3.07-.02-1.13-.02-2.33-.02-3.57,0-3.16.05-6.49.16-9.98.11-3.5.29-5.85.56-7.05.16-.65.44-1.1.81-1.38.38-.28,1-.49,1.89-.62l-.04-.75ZM68.27,206.81c.02-.33.07-.6.15-.79.12-.31.26-.52.42-.62.16-.11.52-.25,1.11-.44v-.83c-1.29.12-2.82.2-4.6.23-1.78.03-3.71.06-5.79.07l-.09.97c.36-.06.83-.09,1.42-.09,1.38,0,2.34.12,2.88.36.54.23.88.72,1.02,1.43.15.73.21,2.01.21,3.83s-.02,3.04-.06,3.49c-.04.46-.16.79-.32.99-.36.46-1.13.92-2.33,1.4s-2.65.73-4.37.73c-2.03,0-3.89-.43-5.57-1.28-1.69-.86-3.12-2.01-4.3-3.47-1.18-1.44-2.06-2.99-2.65-4.62-.58-1.62-.85-3.21-.85-4.76,0-2.18.5-4.29,1.53-6.34,1.02-2.05,2.5-3.7,4.42-4.95,1.92-1.26,4.13-1.89,6.62-1.89,2.63,0,4.71.58,6.23,1.71s2.56,2.34,3.12,3.63c.11.26.18.42.21.46.04.04.13.07.27.07.17,0,.27-.12.27-.34,0-.53-.1-1.51-.31-2.94-.19-1.43-.3-2.36-.3-2.79,0-.58-.11-.86-.31-.86-.13,0-.58.34-1.38,1.01-.19,0-.62-.14-1.27-.43-.16-.05-.52-.16-1.1-.28-.58-.13-1.24-.25-2-.35-.75-.11-1.55-.16-2.38-.16-2.17,0-4.29.33-6.36.98-2.06.65-3.91,1.63-5.54,2.92-1.63,1.3-2.91,2.9-3.85,4.8-.94,1.9-1.41,4-1.41,6.3,0,1.76.31,3.5.93,5.21.61,1.73,1.59,3.32,2.92,4.78,1.33,1.47,3.03,2.63,5.09,3.48s4.48,1.29,7.26,1.29c.91,0,1.71-.02,2.39-.05.67-.04,1.58-.14,2.7-.28,1.13-.14,2.31-.33,3.53-.56,1.85-.37,2.89-.57,3.13-.58l.23-.52c-.3-.26-.51-.49-.65-.72-.12-.21-.21-.61-.28-1.18-.05-.57-.09-1.52-.09-2.86,0-1.81.01-3.05.02-3.71.02-.66.03-1.15.05-1.48ZM102.7,197.68c-.83-1.88-1.96-3.47-3.37-4.77-1.42-1.29-3.02-2.31-4.81-3.02-1.78-.73-3.59-1.09-5.42-1.09-2.69,0-5.23.67-7.64,2.03-2.39,1.36-4.32,3.19-5.78,5.5-1.45,2.32-2.18,4.85-2.18,7.57,0,1.71.33,3.43.96,5.18.64,1.75,1.61,3.39,2.91,4.92,1.29,1.54,2.87,2.75,4.71,3.65,1.86.91,3.93,1.36,6.22,1.36,3.01,0,5.7-.69,8.08-2.07,2.38-1.39,4.24-3.25,5.57-5.57,1.35-2.35,2.01-4.86,2.01-7.55,0-2.2-.42-4.25-1.26-6.13ZM99.02,212.18c-1,1.76-2.3,3.07-3.86,3.93-1.57.84-3.2,1.27-4.92,1.27-2.32,0-4.5-.7-6.59-2.11-2.07-1.4-3.73-3.28-4.95-5.63-1.23-2.33-1.85-4.83-1.85-7.45,0-2.39.5-4.48,1.51-6.29,1.01-1.8,2.34-3.17,3.99-4.11,1.65-.94,3.43-1.41,5.32-1.41,1.73,0,3.37.39,4.93,1.16,1.57.77,2.95,1.87,4.14,3.27,1.18,1.41,2.12,3.03,2.79,4.9.67,1.87,1.01,3.82,1.01,5.9,0,2.6-.51,4.78-1.52,6.57ZM128.7,212.49c-.35,1.41-1.01,2.41-1.97,2.99-.73.39-1.8.77-3.25,1.11-1.43.35-3.21.51-5.34.51-1.94,0-3.21-.04-3.8-.13-.6-.09-1.02-.23-1.27-.43-.21-.21-.36-.73-.46-1.54-.09-.81-.14-2.06-.14-3.77,0-1.86.02-3.74.05-5.63.02-1.89.07-4,.14-6.33.04-2.07.09-3.77.15-5.09.06-1.32.16-2.16.29-2.49.23-.5.61-.83,1.11-.99.51-.16,1.28-.29,2.33-.37l.04-.89c-.8.06-2.47.1-4.99.1-.39-.02-.88-.03-1.46-.04-.59-.02-1.83-.03-3.71-.05v.79c.85.03,1.48.14,1.87.31.38.17.67.54.85,1.1.18.57.29,1.43.32,2.58.03,1.15.03,2.86,0,5.09l-.04,9.92c0,1.95-.03,3.45-.09,4.48-.05,1.04-.18,1.81-.38,2.33-.2.52-.5.89-.91,1.1-.42.2-1.06.41-1.94.59l.04.69h15.82c.52,0,.99,0,1.39.01s.83.02,1.29.03c.77,0,1.8.09,3.1.22.42-1,.78-2.12,1.1-3.35.31-1.24.52-2.16.61-2.78l-.75-.09ZM162.26,197.49c-.91-1.8-2.16-3.34-3.75-4.6-1.59-1.27-3.41-2.23-5.45-2.9s-4.18-1-6.43-1c-1.1,0-2.15.07-3.17.2-2.75.33-6.14.5-10.16.5l.04.83c1.25-.05,2.06.21,2.46.79.32.52.52,1.87.63,4.05.11,2.17.16,5.45.16,9.87,0,6.65-.19,10.4-.57,11.22-.33.7-1.3,1.07-2.9,1.07v.83l2.21.04c.3,0,.85-.01,1.65-.03.8-.02,1.64-.04,2.52-.06.89-.01,1.55-.02,2.01-.03h1.57c.17,0,.75.01,1.74.03.99.03,1.58.05,1.77.05,3.34,0,6.31-.65,8.91-1.95,2.6-1.3,4.61-3.07,6.02-5.33,1.4-2.25,2.1-4.75,2.1-7.48,0-2.25-.46-4.29-1.37-6.1ZM158.38,210.17c-.89,2.08-2.33,3.79-4.31,5.15-2,1.35-4.54,2.01-7.65,2.01-1.23,0-2.25-.09-3.06-.28-.81-.19-1.97-.52-3.49-1,0-.15-.01-.74-.03-1.77-.02-1.02-.04-2.04-.07-3.05-.02-.99-.02-1.57-.02-1.69,0-3.02.02-6.62.11-10.79.07-4.17.19-6.68.33-7.53,1.75-.78,3.7-1.16,5.87-1.16s4.36.52,6.46,1.57c2.1,1.05,3.83,2.6,5.18,4.65,1.36,2.05,2.04,4.5,2.04,7.36,0,2.27-.45,4.45-1.33,6.54ZM188.21,211.83c-.51,1.44-1.13,2.54-1.84,3.31-.72.77-1.74,1.32-3.09,1.67-1.35.34-3.19.51-5.56.51-.94,0-1.73-.02-2.36-.07-.64-.05-1.12-.1-1.45-.15-.34-.05-.7-.13-1.08-.21-.36-.1-.69-.18-.97-.25-.36-2.12-.5-5.13-.39-9.04l.09-3.2c.97-.15,2.33-.22,4.06-.22,2.69,0,4.57.07,5.6.22,1.06.15,1.77.49,2.13,1.04.37.54.58,1.51.63,2.89h.78c.01-1.6.03-3.01.04-4.24v-4.2l-.65-.04c-.26.89-.48,1.54-.7,1.96-.2.43-.43.7-.66.8-.22.11-.68.2-1.36.28-1.2.12-3.37.18-6.57.18-1.84,0-2.95-.02-3.31-.05,0-.12-.01-.79-.02-2.03-.02-1.44-.02-2.71-.02-3.83,0-1.69.13-3.79.41-6.28,2.4-.31,4.71-.46,6.92-.46,1.84,0,3.41.15,4.72.46,1.31.3,1.97.99,1.97,2.09,0,.07-.03.35-.1.83-.05.48-.09.76-.09.85,0,.22.19.34.57.34.3,0,.54-.65.74-1.94.2-1.29.33-2.58.41-3.88-3.28.13-5.72.18-7.34.18h-14.44c-.03.15-.04.35-.04.59,1,.19,1.69.43,2.05.68.36.25.6.77.74,1.55.13.78.21,2.28.26,4.5l.16,7.16c.01.47,0,1.63-.05,3.5-.06,1.86-.13,3.53-.21,5.03-.07,1.51-.17,2.53-.26,3.1-.07.58-.15.97-.22,1.18-.07.22-.19.41-.37.56-.17.15-.5.29-.97.42-.49.13-.96.25-1.43.35l-.04.77c.86-.05,2.2-.11,4.04-.16,1.84-.06,3.41-.11,4.7-.13,1.29-.02,2.42-.03,3.39-.03.09.01.54.02,1.4.04,1.07.03,2.07.05,3,.05,1.54,0,2.74,0,3.6.03.85.02,1.54.05,2.03.1.46-.93.82-1.91,1.11-2.94.28-1.04.54-2.33.78-3.89h-.69ZM225.05,189.28l-2.86.04h-.99c-.41,0-.8-.01-1.17-.04-.63-.06-1.18-.11-1.64-.12-.47-.02-.94-.02-1.4-.02-.52,0-.89.01-1.11.04l-.25.63c1.21.2,2.06.39,2.57.58.51.18.92.57,1.24,1.12.31.56.53,1.42.65,2.58.11,1.17.16,2.91.16,5.23v4.34c0,3.82-.05,6.66-.18,8.54l-13.29-12.61c-.2-.2-1.05-1.04-2.56-2.5-1.51-1.46-2.87-2.84-4.09-4.11-1.22-1.28-2.27-2.49-3.18-3.63l-1.93.05c-.51.01-.96,0-1.32-.02-.38-.02-1.25-.07-2.59-.17v.93c1.33.15,2.28.58,2.84,1.28.56.7.89,1.63.99,2.78.12,1.14.16,2.89.13,5.25l-.13,10.75c-.02,1.59-.07,2.89-.15,3.91-.09,1.01-.21,1.75-.4,2.22-.18.46-.42.78-.72.95-.29.16-.77.28-1.43.35-.25.03-.42.06-.49.12-.07.04-.12.18-.12.41,0,.19.05.33.15.42.1.09.26.12.46.12.65-.04,1.17-.09,1.58-.11.41-.03.73-.05.97-.06,1.41-.06,2.23-.1,2.48-.1s.99.03,2.23.1c1.21.05,1.92.09,2.17.09.06-.25.09-.52.09-.83-1.85-.36-3.11-.73-3.76-1.09-.66-.37-1.09-1.13-1.29-2.26-.19-1.12-.26-3.12-.17-5.96l.29-13.81c1.69,1.56,3.07,2.86,4.17,3.9,1.11,1.05,1.8,1.67,2.08,1.87l8.45,7.9c5.22,4.85,8.34,8.39,9.38,10.62l.92.05c-.06-.8-.11-1.67-.14-2.59-.03-.93-.05-1.97-.07-3.16-.02-1.16-.03-2.39-.03-3.66,0-3.25.05-6.67.17-10.26.11-3.59.3-6,.57-7.24.17-.66.45-1.13.84-1.41.38-.29,1.02-.5,1.93-.63l-.04-.77ZM78.71,278.09c-.44-1.05-1.06-1.97-1.86-2.73-.8-.78-1.73-1.38-2.82-1.8-1.08-.44-2.26-.65-3.53-.65s-2.48.21-3.55.65c-1.08.43-2.02,1.02-2.82,1.81-.79.78-1.42,1.69-1.86,2.73-.44,1.04-.66,2.18-.66,3.42s.22,2.38.66,3.43c.44,1.04,1.07,1.94,1.86,2.72.8.79,1.74,1.39,2.83,1.81,1.09.44,2.27.65,3.54.65s2.46-.21,3.53-.65c1.09-.43,2.02-1.02,2.82-1.79.8-.78,1.42-1.7,1.86-2.73.45-1.05.67-2.2.67-3.44s-.22-2.39-.67-3.43ZM77.07,284.31c-.36.85-.86,1.59-1.49,2.23-.64.64-1.39,1.13-2.25,1.47-.86.35-1.8.52-2.82.52s-1.95-.17-2.83-.52c-.88-.34-1.62-.83-2.27-1.47-.65-.64-1.14-1.38-1.49-2.24-.35-.84-.53-1.77-.53-2.78s.18-1.94.53-2.8c.35-.84.84-1.59,1.49-2.22.65-.64,1.4-1.13,2.27-1.47.88-.35,1.81-.52,2.83-.52s1.95.17,2.82.52c.86.34,1.61.83,2.25,1.47.63.63,1.13,1.38,1.49,2.22.35.85.52,1.78.52,2.8s-.17,1.94-.52,2.79ZM83.15,273.06v1.55h5.96v15.38h1.78v-15.38h5.96v-1.55h-13.7ZM122.5,288.44v-15.38h-1.78v16.93h11.27v-1.55h-9.49ZM156.83,286.62c.69-1.07,1.17-2.37,1.47-3.9l-1.39-.44c-.23,1.29-.61,2.38-1.12,3.28l-4.65-4.79c.75-.44,1.37-.83,1.86-1.21.68-.5,1.16-1.02,1.46-1.56.3-.53.45-1.1.45-1.72,0-.7-.16-1.31-.49-1.8-.33-.5-.79-.89-1.38-1.15s-1.28-.39-2.07-.39c-.88,0-1.63.14-2.27.44-.64.3-1.14.73-1.48,1.26-.35.54-.52,1.17-.52,1.9,0,.45.06.88.19,1.28.13.41.36.83.69,1.27.31.43.73.91,1.25,1.46-.9.52-1.64,1.01-2.22,1.49-.72.59-1.24,1.18-1.56,1.78-.32.61-.48,1.27-.48,2,0,.85.25,1.6.74,2.25.49.64,1.16,1.14,2.02,1.51.85.36,1.83.54,2.92.54,1.39,0,2.63-.28,3.73-.84.72-.37,1.37-.85,1.92-1.45l2.36,2.42.99-1.14-2.41-2.49ZM148.44,277.48c-.11-.3-.15-.62-.15-.96,0-.68.22-1.23.69-1.65.47-.43,1.13-.64,1.99-.64.79,0,1.4.19,1.83.58.43.38.64.9.64,1.53,0,.43-.12.84-.36,1.22-.23.38-.65.78-1.22,1.18-.43.31-.98.66-1.67,1.06-.49-.51-.86-.94-1.14-1.28-.3-.37-.5-.72-.61-1.02ZM153.36,288c-.89.47-1.89.7-3.02.7-.8,0-1.52-.13-2.13-.37-.63-.26-1.11-.61-1.45-1.07-.35-.46-.52-.99-.52-1.61,0-.53.12-1.01.36-1.46.25-.44.65-.9,1.25-1.37.49-.39,1.14-.82,1.94-1.28l5.1,5.25c-.44.5-.95.91-1.53,1.21ZM183.9,283.36c-.38-.54-.89-.98-1.51-1.31s-1.29-.61-2.03-.81c-.74-.21-1.47-.41-2.21-.59-.75-.17-1.43-.37-2.05-.6-.62-.22-1.12-.54-1.49-.95-.38-.39-.58-.93-.58-1.59,0-.59.16-1.1.48-1.56.31-.46.8-.83,1.46-1.1.66-.28,1.49-.42,2.51-.42.76,0,1.55.12,2.36.34.81.22,1.59.58,2.32,1.07l.6-1.43c-.67-.47-1.48-.83-2.41-1.1-.94-.27-1.88-.41-2.83-.41-1.44,0-2.62.21-3.53.64-.92.43-1.6.99-2.05,1.7-.44.7-.66,1.47-.66,2.31,0,.91.19,1.63.57,2.19.38.57.89,1,1.51,1.35s1.3.61,2.04.81c.75.2,1.48.39,2.23.57.74.18,1.42.38,2.03.62.61.23,1.11.56,1.48.96.38.39.58.93.58,1.59,0,.56-.16,1.05-.48,1.51-.31.45-.8.8-1.47,1.07s-1.54.41-2.59.41c-1.12,0-2.18-.2-3.18-.6-1.01-.39-1.81-.88-2.41-1.46l-.69,1.38c.62.65,1.52,1.17,2.67,1.59,1.15.41,2.36.62,3.62.62,1.45,0,2.64-.21,3.57-.65.93-.42,1.61-.98,2.06-1.69.46-.7.68-1.46.68-2.28,0-.89-.19-1.6-.57-2.16ZM39.17,262.35v1.79h183.18v-1.79H39.17ZM55.17,273.06v16.93h-1.77v-7.81h-10.59v7.81h-1.79v-16.93h1.79v7.55h10.59v-7.55h1.77ZM114.09,288.44v1.55h-11.98v-16.93h11.61v1.55h-9.82v6.02h8.75v1.53h-8.75v6.29h10.18ZM217.36,273.06h-1.76l-7.74,16.93h1.86l2.03-4.53h9.44l2.03,4.53h1.89l-7.74-16.93ZM212.38,284.01l4.08-9.11,4.08,9.11h-8.16ZM203.2,275.72c-.56-.86-1.36-1.52-2.38-1.97-1.05-.47-2.26-.69-3.7-.69h-6.34v16.93h1.79v-5.35h4.55c1.44,0,2.66-.23,3.7-.7,1.02-.46,1.83-1.13,2.38-1.99.54-.86.83-1.89.83-3.1s-.29-2.25-.83-3.13ZM200.93,281.97c-.88.73-2.18,1.1-3.85,1.1h-4.5v-8.47h4.5c1.68,0,2.98.36,3.85,1.11.88.74,1.31,1.79,1.31,3.14s-.44,2.38-1.31,3.12ZM110.81,59.36c15.15-8.23,30.92-6.18,44.33,0l-11.9,19.61c-6.28-2.09-13.32-2.43-20.32-.04l-.23.08-11.88-19.65ZM108.03,61.11c3.98,6.5,7.96,13,11.94,19.5-4.21,3-7.43,6.33-9.73,9.97-2.29,3.63-3.71,7.8-4.23,12.09-1.45,11.96,4.25,23.82,14.87,29.66,16.54,9.09,39.2,1.53,51.9-10.92,15.39-15.07,19.3-40.17,10.41-59.6-3.44-7.52-8.51-12.61-14.07-17.86.19-.34.38-.69.56-1.03,9.32,6.81,18.02,15.2,23.73,31.17,2.09,6.99,3.1,13.98,2.87,20.97-.51,15.64-7.34,30.51-18.55,41.37-17.99,17.43-46.97,22.62-68.53,9.06-5.46-3.43-10.28-7.9-14.12-13.2-8.32-11.49-11.72-26.1-8.39-40.35,2.79-11.94,9.39-22.42,21.33-30.83M106.45,58.32c-7.7,5.6-14.77,12.54-19.37,22.54-4.73,10.68-5.92,21.92-3.54,33.71,2.8,11.58,8.96,22.29,20.55,31.59,9,6.37,19.12,10.12,30.71,10.41v1.61c-12.91.79-23.63-2.62-33.44-7.77-12.6-7.42-20.3-16.82-25.51-27.23-8.34-17.25-8.26-37.41.18-54.51,4.7-9.52,12.02-17.87,21.77-24.41,2.83,4.59,5.83,9.48,8.66,14.07M121.78,83.32c3.13,5.05,6.26,10.1,9.39,15.16-16.83,6.48-15.2,30.44,3.62,32.72v1.95c-26.02-1.61-34.99-34.99-13.01-49.83M114.48,35.98l.12-.03,1.17-.32c1.16,3.28,2.48,6.47,8.62,6.85,6.35-1.17,7.47-4.87,7.84-8.92h1.47c.4,4.03,1.5,7.7,7.46,8.85,5.78.2,7.82-3.01,9.08-6.92l1.23.47-4.1,15.37c-10.15-2.72-19.66-2.57-28.63-.03l-.17.05-4.1-15.35Z"/>
</svg>