<?xml version="1.0" standalone="no"?>
<!DOCTYPE svg PUBLIC "-//W3C//DTD SVG 1.1//EN" "http://www.w3.org/Graphics/SVG/1.1/DTD/svg11.dtd">
<svg xmlns="http://www.w3.org/2000/svg" id="Layer_1" version="1.1" viewBox="0 0 299.8 222.9" width="299.79998779296875" height="222.89999389648438">
  <!-- Generator: Adobe Illustrator 29.3.1, SVG Export Plug-In . SVG Version: 2.1.0 Build 151)  -->
  <defs>
    <style>
      .st0 {
        fill: #bb9d58;
      }
    </style>
  </defs>
  <g id="Layer_11" data-name="Layer_1">
    <g>
      <path class="st0" d="M2.8,193c.1-.1.4-.3.8-.4.4-.1.8-.2,1.3-.2l1.5-15.8-2.1-.2v-.5c0-.3,0-.5.2-.8h4.3l4.9,13.8c.2.6.4,1.2.5,1.6h.1l5.3-15.4h4.4c0,.3.1.6.1.8-.1.1-.4.3-.8.4s-.9.2-1.4.2l1.6,15.8,2.2.2c0,.5,0,.9-.1,1.2h-6c0-.3-.1-.6-.1-.8.1-.1.4-.3.8-.4.4-.1.8-.2,1.3-.2l-1.3-12.9c0-.7-.1-1.2-.1-1.4h-.1l-5.2,15.1c-.5.2-1.1.2-1.5.2l-4.9-13.8c-.2-.7-.4-1.2-.5-1.5h0l-1.3,14.3,2,.2v.5c0,.3,0,.5-.2.8H2.9c-.1-.4-.2-.6-.1-.8ZM52.8,192.6c0,.5,0,.9-.1,1.2h-5.9c0-.3-.1-.6-.1-.8.1-.1.4-.3.7-.4.4-.1.8-.2,1.2-.2l-1.5-4.3h-7.7l-1.5,4.3,1.9.2c0,.5,0,.9-.2,1.2h-5.3c0-.3-.1-.6-.1-.8.1-.1.4-.3.8-.4.4-.1.8-.2,1.4-.2l6.1-17.1c.6-.4,1.3-.5,2.1-.4l6.1,17.5,2.1.2ZM39.9,186.7h6.8l-2.8-8.2c-.2-.6-.4-1.2-.5-1.6h0l-3.4,9.8ZM64.9,193.8c-1-.2-1.9-.5-2.6-1,.3-1.9.5-3.3.7-4.2.3,0,.6,0,.8,0,.3,0,.5.2.6.3v3.1c.4.2,1,.4,1.6.5.6.1,1.2.2,1.9.2,1.1,0,2.1-.3,2.9-.8.8-.6,1.2-1.5,1.2-2.7s-.2-1.4-.5-1.9c-.4-.5-.8-.9-1.4-1.3-.6-.3-1.3-.7-2.3-1.2-1-.5-1.8-.9-2.4-1.2s-1.1-.9-1.6-1.5c-.4-.6-.7-1.4-.7-2.4s.2-1.8.7-2.6c.5-.7,1.2-1.3,2.1-1.8.9-.4,1.9-.6,3-.6s1.4,0,2.1.2c.7.2,1.4.4,2.1.7,0,2-.2,3.3-.2,4.1,0,0-.2,0-.3,0-.5,0-.8-.1-1.1-.4l-.2-3c-.8-.2-1.5-.3-2.3-.3-1.3,0-2.3.3-2.9.9-.7.6-1,1.4-1,2.3s.2,1.2.5,1.7.8.8,1.3,1.1c.5.3,1.1.6,1.9.9l.5.2c1.6.7,2.8,1.5,3.6,2.3.8.8,1.1,1.8,1.1,3.1s-.3,2.1-.8,2.9c-.6.8-1.3,1.4-2.2,1.8s-2,.6-3.1.6-1.7-.1-2.8-.3ZM87,193.8c-1-.2-1.9-.5-2.6-1,.3-1.9.5-3.3.7-4.2.3,0,.6,0,.8,0,.3,0,.5.2.6.3v3.1c.4.2,1,.4,1.6.5.6.1,1.2.2,1.9.2,1.1,0,2.1-.3,2.9-.8.8-.6,1.2-1.5,1.2-2.7s-.2-1.4-.5-1.9c-.4-.5-.8-.9-1.4-1.3-.6-.3-1.3-.7-2.3-1.2-1-.5-1.8-.9-2.4-1.2s-1.1-.9-1.6-1.5c-.4-.6-.7-1.4-.7-2.4s.2-1.8.7-2.6c.5-.7,1.2-1.3,2.1-1.8.9-.4,1.9-.6,3-.6s1.4,0,2.1.2c.7.2,1.4.4,2.1.7,0,2-.2,3.3-.2,4.1,0,0-.2,0-.3,0-.5,0-.8-.1-1.1-.4l-.2-3c-.8-.2-1.5-.3-2.3-.3-1.3,0-2.3.3-2.9.9-.7.6-1,1.4-1,2.3s.2,1.2.5,1.7.8.8,1.3,1.1c.5.3,1.1.6,1.9.9l.5.2c1.6.7,2.8,1.5,3.6,2.3.8.8,1.1,1.8,1.1,3.1s-.3,2.1-.8,2.9c-.6.8-1.3,1.4-2.2,1.8s-2,.6-3.1.6-1.7-.1-2.8-.3ZM123.4,192.6c0,.5,0,.9-.1,1.2h-5.9c0-.3-.1-.6-.1-.8.1-.1.4-.3.7-.4.4-.1.8-.2,1.2-.2l-1.5-4.3h-7.7l-1.5,4.3,1.9.2c0,.5,0,.9-.2,1.2h-5.3c0-.3-.1-.6-.1-.8.1-.1.4-.3.8-.4.4-.1.8-.2,1.4-.2l6.1-17.1c.6-.4,1.3-.5,2.1-.4l6.1,17.5,2.1.2ZM110.6,186.7h6.8l-2.8-8.2c-.2-.6-.4-1.2-.5-1.6h0l-3.4,9.8ZM135.8,192.9c-1.2-.8-2.2-1.9-2.8-3.3-.6-1.4-1-3-1-4.8s.4-3.9,1.3-5.4c.8-1.5,2-2.6,3.4-3.4,1.5-.8,3.1-1.2,4.9-1.2s1.8,0,2.7.3c.9.2,1.7.4,2.3.8-.2,1.9-.4,3.3-.5,4.1,0,0-.2,0-.3,0-.4,0-.8-.1-1.1-.4v-2.8c-.4-.2-1-.3-1.6-.4-.7,0-1.3-.1-1.9-.1-2.2,0-3.9.6-5.1,1.9-1.2,1.3-1.9,3.3-1.9,6s.6,4.7,1.8,6.1c1.2,1.5,2.8,2.2,5,2.2s2.7-.2,3.7-.5v-5l-2.2-.2c0-.5,0-.9.2-1.2h5.7c0,.3.1.6.1.8-.1.1-.4.3-.7.4-.4.1-.8.2-1.3.2v5.4c-.7.5-1.6.9-2.7,1.2-1.1.3-2.2.5-3.4.5-1.8,0-3.3-.4-4.5-1.2ZM169.7,189.4h.3c.2,0,.4,0,.7,0s.4.2.4.3c0,1.3,0,2.6-.1,4h-12.9c0-.3-.1-.6-.1-.8.1-.1.4-.3.7-.4.4-.1.8-.2,1.3-.2v-15.8l-2.1-.2c0-.5,0-.9.2-1.2h12.7c0,1.9-.1,3.3-.2,4.3-.2,0-.3,0-.4,0-.4,0-.8-.1-1.1-.4l-.2-2.6h-6.9v7.3l6.1-.2c0,.6,0,1-.1,1.4h-6v7.5h7.2l.5-3.1ZM210.8,192.7c0,.2,0,.5-.2.6,0,.2-.3.3-.5.5-.9-.5-1.9-1-2.8-1.6-.6.6-1.3,1.1-2.1,1.4-.8.3-1.8.5-2.8.5s-2.3-.2-3.2-.7-1.6-1.1-2.1-1.9c-.5-.8-.7-1.7-.7-2.8s.2-2,.7-2.8c.5-.7,1.1-1.3,1.8-1.8-.7-1.4-1.1-2.8-1.1-4.2s.2-1.8.6-2.6c.4-.8,1-1.4,1.8-1.8s1.6-.7,2.6-.7,2.5.3,3.5,1c0,.4,0,.9-.2,1.3-.2.4-.4.7-.7.9-.2-.6-.6-1-1.1-1.4-.5-.4-1.1-.6-1.8-.6s-1.5.3-2,1c-.5.6-.8,1.6-.8,2.8,0,3.5,2.4,7,7.3,10.5.3-.6.4-1.3.4-2s-.2-1.6-.5-2.4-.8-1.6-1.3-2.3c0-.1,0-.3,0-.5s0-.4,0-.7h4.1c0,.5,0,.9-.1,1.3h-2.6c1.2,1.4,1.8,3,1.8,4.6s-.2,2-.7,2.9c.8.6,1.7,1.1,2.7,1.7ZM206.1,191.4c-2.9-2-5.1-4.1-6.5-6.3-.8.9-1.1,1.9-1.1,3.2s.4,2.4,1.2,3.1,1.9,1.1,3.3,1.1,2.4-.4,3.2-1.1ZM238.1,193.8c-1-.2-1.9-.5-2.6-1,.3-1.9.5-3.3.7-4.2.3,0,.6,0,.8,0,.3,0,.5.2.6.3v3.1c.4.2,1,.4,1.6.5.6.1,1.2.2,1.9.2,1.1,0,2.1-.3,2.9-.8.8-.6,1.2-1.5,1.2-2.7s-.2-1.4-.5-1.9c-.4-.5-.8-.9-1.4-1.3-.6-.3-1.3-.7-2.3-1.2-1-.5-1.8-.9-2.4-1.2s-1.1-.9-1.6-1.5c-.4-.6-.7-1.4-.7-2.4s.2-1.8.7-2.6c.5-.7,1.2-1.3,2.1-1.8.9-.4,1.9-.6,3-.6s1.4,0,2.1.2,1.4.4,2.1.7c0,2-.2,3.3-.2,4.1,0,0-.2,0-.3,0-.5,0-.8-.1-1.1-.4l-.2-3c-.8-.2-1.5-.3-2.3-.3-1.3,0-2.3.3-2.9.9s-1,1.4-1,2.3.2,1.2.5,1.7c.3.5.8.8,1.3,1.1.5.3,1.1.6,1.9.9l.5.2c1.6.7,2.8,1.5,3.6,2.3.8.8,1.1,1.8,1.1,3.1s-.3,2.1-.8,2.9c-.6.8-1.3,1.4-2.2,1.8-.9.4-2,.6-3.1.6s-1.7-.1-2.8-.3ZM261.7,186.7v5.6l2.5.2c0,.2,0,.4,0,.6s0,.4-.2.6h-6.2c0-.3-.1-.6-.1-.8.1-.1.4-.3.7-.4.4-.1.8-.2,1.3-.2v-15.8l-2.1-.2c0-.5,0-.9.2-1.2h6.1c2.2,0,3.9.5,5.2,1.5,1.2,1,1.8,2.4,1.8,4.2s-.6,3.4-1.9,4.4c-1.3,1.1-3,1.6-5.2,1.6s-1.5,0-2.1-.2ZM261.7,176.4v9c.6.1,1.3.2,2,.2,1.6,0,2.9-.4,3.8-1.2.9-.8,1.3-2,1.3-3.5s-.5-2.5-1.4-3.3c-.9-.8-2.2-1.2-3.9-1.2h-1.8ZM296.2,192.6c0,.5,0,.9-.1,1.2h-5.9c0-.3-.1-.6-.1-.8.1-.1.4-.3.7-.4.4-.1.8-.2,1.2-.2l-1.5-4.3h-7.7l-1.5,4.3,1.9.2c0,.5,0,.9-.2,1.2h-5.3c0-.3-.1-.6-.1-.8.1-.1.4-.3.8-.4.4-.1.8-.2,1.4-.2l6.1-17.1c.6-.4,1.3-.5,2.1-.4l6.1,17.5,2.1.2ZM283.4,186.7h6.8l-2.8-8.2c-.2-.6-.4-1.2-.5-1.6h0l-3.4,9.8Z"/>
      <path class="st0" d="M65.2,210.7c-.1.1-.3.2-.5.3-.2,0-.5.1-.9.1l-3,8.7c-.3.2-.7.3-1.1.3s-.2,0-.4,0l-1.5-4.7c-.2-.6-.3-1.1-.4-1.2h0l-2.1,5.7c-.3.2-.7.3-1,.3s-.2,0-.4,0l-2.9-9h-1.3c0-.5,0-.8,0-1h3.9c0,.3,0,.5,0,.6-.1.1-.3.2-.5.3-.2,0-.5.1-.8.1l2,6.2c.2.6.3,1,.4,1.2h0l2.1-5.8-.5-1.7h-1.3v-.4c0-.2,0-.4,0-.6h3.9c0,.2,0,.4,0,.6,0,.1-.2.2-.5.3-.2,0-.5.1-.8.1l2.1,6.2c.2.5.3.9.4,1.2h0l2.6-7.5h-1.3v-.5c0-.2,0-.4.1-.5h3.6c0,.3,0,.5,0,.6ZM79.5,215.4h-6.5c0,1.2.4,2.1.9,2.7.6.6,1.3,1,2.3,1s1.9-.3,2.8-.9c.2.2.3.5.4.7-.4.4-.9.7-1.5.9-.6.2-1.2.3-1.9.3s-1.6-.2-2.3-.6c-.7-.4-1.2-1-1.5-1.8-.4-.8-.5-1.6-.5-2.6s.2-2,.6-2.8c.4-.8,1-1.4,1.7-1.9.7-.4,1.5-.7,2.3-.7s1.9.4,2.5,1.1c.6.7.9,1.7.9,2.9s0,1.1-.2,1.6ZM78.3,214.6c0-.3,0-.5,0-.9,0-.9-.2-1.6-.7-2.1-.4-.5-1-.8-1.8-.8s-1.6.3-2.1,1c-.5.6-.8,1.6-.8,2.8h5.3ZM87.1,219.4c0-.1.3-.2.5-.3.3,0,.6-.1.9-.1v-12.8h-1.4c0-.2,0-.3,0-.5s0-.3,0-.4c.4-.1.8-.2,1.1-.2.3,0,.8,0,1.2,0h.4v14h1.4v.4c0,.2,0,.4,0,.5h-4c0-.3,0-.5,0-.5ZM98.3,219.4c0-.1.3-.2.5-.3.3,0,.6-.1.9-.1v-12.8h-1.4c0-.2,0-.3,0-.5s0-.3,0-.4c.4-.1.8-.2,1.1-.2.3,0,.8,0,1.2,0h.4v14h1.4v.4c0,.2,0,.4,0,.5h-4c0-.3,0-.5,0-.5ZM120.3,219.1v.3c0,.2,0,.4-.1.5h-4c0-.3,0-.5,0-.5,0-.1.3-.2.5-.3.3,0,.6-.1.9-.1v-5.3c0-1.8-.7-2.7-2-2.7s-1,.2-1.6.5c-.6.3-1,.7-1.3,1.1v6.4h1.4v.4c0,.2,0,.4-.1.5h-4c0-.3,0-.5,0-.5,0-.1.3-.2.5-.3.3,0,.6-.1.9-.1v-7.8l-1.4-.2c0,0,0-.2,0-.4s0-.3,0-.4c.4-.1.8-.2,1.1-.2.3,0,.8,0,1.2-.1h.4v1.6c.4-.5.9-.9,1.4-1.2s1.2-.5,1.9-.5c.9,0,1.7.3,2.2.9.5.6.8,1.5.8,2.8v5.4h1.4ZM135.2,215.4h-6.5c0,1.2.4,2.1.9,2.7.6.6,1.3,1,2.3,1s1.9-.3,2.8-.9c.2.2.3.5.4.7-.4.4-.9.7-1.5.9-.6.2-1.2.3-1.9.3s-1.6-.2-2.3-.6c-.7-.4-1.2-1-1.5-1.8-.4-.8-.5-1.6-.5-2.6s.2-2,.6-2.8c.4-.8,1-1.4,1.7-1.9.7-.4,1.5-.7,2.3-.7s1.9.4,2.5,1.1c.6.7.9,1.7.9,2.9s0,1.1-.2,1.6ZM134,214.6c0-.3,0-.5,0-.9,0-.9-.2-1.6-.7-2.1-.4-.5-1-.8-1.8-.8s-1.6.3-2.1,1c-.5.6-.8,1.6-.8,2.8h5.3ZM144.2,219.9c-.6-.2-1-.4-1.4-.6,0-.2,0-.5.1-.7s.3-.5.5-.6c.8.9,1.7,1.3,2.8,1.3s1.1-.1,1.4-.4c.4-.3.5-.6.5-1.1s-.1-.7-.3-.9c-.2-.3-.4-.5-.7-.7-.3-.2-.7-.4-1.2-.6-.6-.3-1.1-.6-1.4-.8-.4-.2-.7-.5-.9-.9-.3-.4-.4-.8-.4-1.3,0-.8.3-1.4,1-1.9.7-.5,1.5-.7,2.4-.7s.9,0,1.3.2c.5.1.9.3,1.2.6,0,.2,0,.5-.1.8s-.3.5-.5.6c-.3-.4-.6-.7-1-.9s-.8-.3-1.3-.3-1,.1-1.3.4c-.3.2-.5.6-.5,1s0,.6.3.8c.2.2.4.4.7.6.3.2.7.4,1.2.6.6.3,1.1.6,1.5.8.4.2.7.6,1,1,.3.4.4.9.4,1.4,0,.8-.3,1.5-1,2-.7.5-1.5.7-2.5.7s-1.2,0-1.8-.3ZM158.1,219.9c-.6-.2-1-.4-1.4-.6,0-.2,0-.5.1-.7.1-.3.3-.5.5-.6.8.9,1.7,1.3,2.8,1.3s1.1-.1,1.4-.4c.4-.3.5-.6.5-1.1s0-.7-.3-.9c-.2-.3-.4-.5-.7-.7-.3-.2-.7-.4-1.2-.6-.6-.3-1.1-.6-1.4-.8-.4-.2-.7-.5-.9-.9-.3-.4-.4-.8-.4-1.3,0-.8.3-1.4,1-1.9.7-.5,1.5-.7,2.4-.7s.9,0,1.3.2c.5.1.9.3,1.2.6,0,.2,0,.5-.1.8s-.3.5-.5.6c-.3-.4-.6-.7-1-.9s-.8-.3-1.3-.3-1,.1-1.3.4c-.3.2-.5.6-.5,1s0,.6.3.8c.2.2.4.4.7.6s.7.4,1.2.6c.6.3,1.1.6,1.5.8.4.2.7.6,1,1,.3.4.4.9.4,1.4,0,.8-.3,1.5-1,2s-1.5.7-2.5.7-1.2,0-1.8-.3ZM183.2,219.9c-.6-.2-1-.4-1.4-.6,0-.2,0-.5.1-.7.1-.3.3-.5.5-.6.8.9,1.7,1.3,2.8,1.3s1.1-.1,1.4-.4c.4-.3.5-.6.5-1.1s-.1-.7-.3-.9c-.2-.3-.4-.5-.7-.7-.3-.2-.7-.4-1.2-.6-.6-.3-1.1-.6-1.4-.8-.4-.2-.7-.5-.9-.9-.3-.4-.4-.8-.4-1.3,0-.8.3-1.4,1-1.9.7-.5,1.5-.7,2.4-.7s.9,0,1.3.2c.5.1.9.3,1.2.6,0,.2,0,.5-.1.8-.1.3-.3.5-.5.6-.3-.4-.6-.7-1-.9s-.8-.3-1.3-.3-1,.1-1.3.4-.5.6-.5,1,0,.6.3.8c.2.2.4.4.7.6s.7.4,1.2.6c.6.3,1.1.6,1.5.8.4.2.7.6,1,1,.3.4.4.9.4,1.4,0,.8-.3,1.5-1,2s-1.5.7-2.5.7-1.2,0-1.8-.3ZM204.5,218.7c.1.2.2.4.2.6-.4.5-.9.7-1.6.7s-.7-.1-1-.4-.4-.6-.4-1.1c-.3.4-.7.8-1.3,1.1-.5.3-1.1.4-1.8.4s-1.5-.2-2-.7c-.5-.5-.7-1.1-.7-1.9s.4-1.6,1.1-2.2c.7-.6,1.7-.9,3-1l1.7-.2v-1.2c0-.7-.1-1.2-.4-1.6s-.8-.6-1.7-.6-1.1,0-1.8.3l-.3,2c0,0-.1,0-.2,0-.4,0-.6-.1-.8-.3,0-.5,0-1,0-1.5.4-.4.9-.8,1.5-1,.6-.3,1.3-.4,2.1-.4s1.8.3,2.3.8c.5.6.8,1.3.8,2.3v5c0,.4,0,.7.2.9l1.3-.2ZM200.5,218.7c.5-.3.9-.7,1.2-1.1v-2.5l-1.7.2c-.9,0-1.5.3-2,.7-.5.4-.7.9-.7,1.5s.2.9.5,1.2.7.5,1.3.5,1-.1,1.5-.4ZM211.5,219.4c0-.1.3-.2.5-.3.3,0,.6-.1.9-.1v-12.8h-1.4c0-.2,0-.3,0-.5s0-.3,0-.4c.4-.1.8-.2,1.1-.2.3,0,.7,0,1.2,0h.4v14h1.4v.4c0,.2,0,.4,0,.5h-4c0-.3,0-.5,0-.5ZM224.7,219.5c-.6-.4-1.1-1-1.5-1.8-.3-.7-.5-1.6-.5-2.5s.2-2,.6-2.8c.4-.8,1-1.5,1.7-1.9.7-.4,1.5-.7,2.3-.7s1.5.2,2.1.6c.6.4,1.1,1,1.5,1.7.3.7.5,1.6.5,2.5s-.2,2-.6,2.8c-.4.8-1,1.5-1.7,1.9-.7.4-1.5.7-2.3.7s-1.5-.2-2.1-.6ZM229.4,218.1c.5-.7.8-1.6.8-2.9s-.3-2.4-.8-3.2c-.6-.8-1.3-1.2-2.3-1.2s-1.6.3-2.1,1-.8,1.6-.8,2.9.3,2.4.8,3.2c.6.8,1.3,1.2,2.3,1.2s1.6-.3,2.1-1ZM249.5,219.1v.3c0,.2,0,.4-.1.5h-4c0-.3,0-.5,0-.5,0-.1.3-.2.5-.3.3,0,.6-.1.9-.1v-5.3c0-1.8-.7-2.7-2-2.7s-1,.2-1.6.5c-.6.3-1,.7-1.3,1.1v6.4h1.4v.4c0,.2,0,.4-.1.5h-4c0-.3,0-.5,0-.5,0-.1.3-.2.5-.3s.6-.1.9-.1v-7.8l-1.4-.2c0,0,0-.2,0-.4s0-.3,0-.4c.4-.1.8-.2,1.1-.2.3,0,.8,0,1.2-.1h.4v1.6c.4-.5.9-.9,1.4-1.2s1.2-.5,1.9-.5c.9,0,1.7.3,2.2.9s.8,1.5.8,2.8v5.4h1.4Z"/>
      <path class="st0" d="M88.7,34.8c.2-.3.7-.6,1.4-.9.8-.3,1.6-.5,2.4-.5V7.7h-6.5l-.6,5.6c-.4,0-.8.1-1.2.1-1.1,0-2-.3-2.6-1,0-1.7-.1-3.5-.1-5.1s0-2.2,0-2.8h27.4c0,2.9-.2,5.8-.4,8.8-.4,0-.8.1-1.2.1-1.1,0-2-.3-2.6-1l-.5-4.8h-6.4v25.7l3.8.4c0,1.2,0,2.2-.3,2.9h-12.4c-.2-.9-.2-1.5-.2-2ZM129.8,24.1c-.1.8-.3,1.5-.5,2h-14.5c.2,2.4.9,4.3,2,5.5,1.1,1.2,2.7,1.8,4.9,1.8s4-.5,6.3-1.6c.6.7,1,1.4,1.1,2.2-1.1,1-2.4,1.8-3.9,2.4-1.6.6-3.2.8-5,.8s-4-.5-5.6-1.4c-1.6-1-2.9-2.3-3.7-4.1-.9-1.8-1.3-3.8-1.3-6.2s.5-4.7,1.5-6.7c1-1.9,2.4-3.4,4.2-4.5,1.8-1.1,3.8-1.6,6-1.6s4.9.8,6.5,2.5c1.6,1.7,2.3,3.9,2.3,6.5s0,1.5-.2,2.3ZM124.8,23.5c0-.8.1-1.5.1-2.1,0-1.7-.4-3.1-1.2-4.1s-2-1.5-3.4-1.5-3,.6-3.9,1.9c-1,1.3-1.5,3.2-1.6,5.7h10.1ZM169.3,4.6c0,2.4-.2,5.3-.4,8.7-.4,0-.8.1-1.1.1s-1,0-1.5-.3-.9-.4-1.2-.7l-.4-4.7h-10.3v11.8l10.3-.4c0,.4,0,1,0,1.6,0,.6-.1,1.2-.2,1.7h-10.1v11.1l5,.4c0,.7,0,1.3,0,1.7,0,.4-.2.8-.4,1.2h-13.5c-.2-.9-.2-1.5-.2-2,.2-.3.7-.6,1.4-.9.8-.3,1.6-.5,2.4-.5V7.9l-3.8-.4c0-.7,0-1.3,0-1.7,0-.4.1-.8.3-1.2h23.6ZM172.3,34.9c.2-.3.6-.6,1.2-.9.6-.3,1.4-.4,2.3-.4v-16.7l-3.4-.6c0-.2,0-.5,0-.9,0-.6,0-1.1.2-1.5,1.2-.3,2.3-.5,3.4-.7s2.4-.2,3.9-.3l1.1.2v20.5l3.5.3c0,1.1,0,2-.3,2.7h-11.7c-.2-.9-.2-1.5-.2-1.8ZM175.6,8.6c-.6-.5-.9-1.3-.9-2.2s.4-1.8,1.1-2.5c.7-.7,1.6-1,2.6-1s1.7.3,2.2.8c.6.5.8,1.2.8,2.1s-.3,1.8-1,2.5c-.7.7-1.5,1.1-2.5,1.1s-1.8-.3-2.4-.8ZM202.9,33c.2.4.3.8.3,1.1-.7,1-1.7,1.8-2.9,2.3-1.2.5-2.5.8-3.9.8-2,0-3.6-.6-4.7-1.8-1.1-1.2-1.7-3.1-1.7-5.7v-13.1c-.8,0-1.5-.1-2.1-.3-.6-.1-1.1-.3-1.3-.5,0-1,0-1.8.2-2.4l3.5-.4,1-5.6c.8-.3,1.6-.5,2.4-.5s.9,0,1.4.1v6.2l6.7-.3c0,.4,0,.9,0,1.6,0,.6-.1,1.2-.2,1.7h-6.5v13.1c0,2.6,1,3.9,3,3.9s1.4-.1,2-.3c.6-.2,1.4-.6,2.2-1,.2.3.5.6.6,1ZM205.4,34.9c.2-.3.6-.6,1.2-.9.6-.3,1.4-.4,2.3-.4v-16.7l-3.4-.6c0-.2,0-.5,0-.9,0-.6,0-1.1.2-1.5,1.2-.3,2.3-.5,3.4-.7s2.4-.2,3.9-.3l1.1.2v20.5l3.5.3c0,1.1,0,2-.3,2.7h-11.7c-.2-.9-.2-1.5-.2-1.8ZM208.7,8.6c-.6-.5-.9-1.3-.9-2.2s.4-1.8,1.1-2.5c.7-.7,1.6-1,2.6-1s1.7.3,2.2.8c.6.5.8,1.2.8,2.1s-.3,1.8-1,2.5c-.7.7-1.5,1.1-2.5,1.1s-1.8-.3-2.4-.8Z"/>
      <path class="st0" d="M221,134.7c-9.6-9.6-22.5-13.8-36.1-13.8s-13.8,1.6-20.3,4.2l.3.4c.6.8,1.7,1,2.6.7,5.7-1.9,11.8-3,17.3-3,11.8,0,23.7,5.1,32.3,13-8.6,7.9-20.5,12.2-32.3,12.2s-25.5-4.8-34.2-12.7c.2-.2.5-.4.7-.6l4.1-5.4c5.3-8.2,9.1-19.7,9.1-29.7s-4.8-26.4-14.5-36.1l-1.5-1.5-1.5,1.5c-15,17.8-15.2,40.3-8.9,57.4l.4-1.3c.4-1.1.4-2.3,0-3.5-5-16.6-1.7-36,9.9-48.7,7.9,8.6,12.8,20.4,12.8,32.2s-4.9,25.7-12.8,34.4l-7.2-5.9c-8.4-5.7-18.2-7.7-28.5-7.7s-26.4,4.3-36.1,14l-1.5,1.5,1.5,1.5c9.9,9.9,23,13.5,36.1,13.5s25.8-3.9,35.7-13.8c9.6,9.5,22.6,13.8,36.2,13.8s26.4-3.8,36.1-13.5l1.5-1.5-1.5-1.5ZM81.6,136.2c8.6-7.9,19.8-12.2,31.5-12.2s25.5,4.2,34.1,12.1c-17.8,16.2-47.8,16.4-65.6.1ZM194.1,91.4c-13.3,0-24.1,10.8-24.1,24.1v1h1c13.3,0,24.1-10.8,24.1-24.1v-1h-1ZM172,114.4c.5-11.4,9.7-20.5,21.1-21.1-.5,11.4-9.7,20.5-21.1,21.1ZM105.3,91.4h-1v1c0,13.3,10.8,24.1,24.1,24.1h1v-1c0-13.3-10.8-24.1-24.1-24.1ZM106.3,93.4c11.4.5,20.5,9.7,21.1,21.1-11.4-.5-20.5-9.7-21.1-21.1ZM148.8,134.3l-7.2-5.9M155.6,129.7l-4.1,5.4"/>
    </g>
  </g>
</svg>